HIERARCHY
ROOT Hips
{
	OFFSET 0.000000 95.581902 0.000000
	CHANNELS 6 Xposition Yposition Zposition Xrotation Yrotation Zrotation 
	JOINT Spine
	{
		OFFSET 0.017300 10.574799 -1.117200
		CHANNELS 3 Xrotation Yrotation Zrotation
		JOINT Spine1
		{
			OFFSET 0.013567 8.812370 -0.931000
			CHANNELS 3 Xrotation Yrotation Zrotation
			JOINT Spine1_split
			{
				OFFSET 0.013567 8.812370 -0.931000
				CHANNELS 3 Xrotation Yrotation Zrotation
				JOINT Spine2
				{
					OFFSET 0.013567 8.812370 -0.931000
					CHANNELS 3 Xrotation Yrotation Zrotation
					JOINT Neck
					{
						OFFSET 0.024400 15.862305 -1.675800
						CHANNELS 3 Xrotation Yrotation Zrotation
						JOINT Head
						{
							OFFSET 0.000000 5.563995 0.988100
							CHANNELS 3 Xrotation Yrotation Zrotation
							JOINT HeadTop_End
							{
								OFFSET 0.000000 18.311905 3.086900
								CHANNELS 3 Xrotation Yrotation Zrotation
								End Site
								{
									OFFSET 0.000000 0.000000 0.000000
								}
							}
						}
					}
					JOINT LeftShoulder
					{
						OFFSET 2.967500 6.835098 -0.831300
						CHANNELS 3 Xrotation Yrotation Zrotation
						JOINT LeftShoulder_split
						{
							OFFSET 2.967500 6.835098 -0.831300
							CHANNELS 3 Xrotation Yrotation Zrotation
							JOINT LeftArm
							{
								OFFSET 12.499416 -1.649887 0.026500
								CHANNELS 3 Xrotation Yrotation Zrotation
								JOINT LeftForeArm
								{
									OFFSET 25.574368 0.000000 0.000000
									CHANNELS 3 Xrotation Yrotation Zrotation
									JOINT LeftHand
									{
										OFFSET 21.603390 0.000000 0.000000
										CHANNELS 3 Xrotation Yrotation Zrotation
										JOINT LeftHandThumb1
										{
											OFFSET 3.545601 -1.908203 2.370373
											CHANNELS 3 Xrotation Yrotation Zrotation
											JOINT LeftHandThumb2
											{
												OFFSET 2.175362 -1.255951 1.255946
												CHANNELS 3 Xrotation Yrotation Zrotation
												JOINT LeftHandThumb3
												{
													OFFSET 1.842712 -1.063889 1.063890
													CHANNELS 3 Xrotation Yrotation Zrotation
													JOINT LeftHandThumb4
													{
														OFFSET 1.893875 -1.093430 1.093431
														CHANNELS 3 Xrotation Yrotation Zrotation
														End Site
														{
															OFFSET 0.000000 0.000000 0.000000
														}
													}
												}
											}
										}
										JOINT LeftHandIndex1
										{
											OFFSET 9.909698 0.291367 2.341870
											CHANNELS 3 Xrotation Yrotation Zrotation
											JOINT LeftHandIndex2
											{
												OFFSET 3.776711 0.000000 0.000000
												CHANNELS 3 Xrotation Yrotation Zrotation
												JOINT LeftHandIndex3
												{
													OFFSET 2.543022 0.000000 0.000000
													CHANNELS 3 Xrotation Yrotation Zrotation
													JOINT LeftHandIndex4
													{
														OFFSET 2.529045 0.000000 0.000000
														CHANNELS 3 Xrotation Yrotation Zrotation
														End Site
														{
															OFFSET 0.000000 0.000000 0.000000
														}
													}
												}
											}
										}
										JOINT LeftHandMiddle1
										{
											OFFSET 9.700798 0.000000 0.000000
											CHANNELS 3 Xrotation Yrotation Zrotation
											JOINT LeftHandMiddle2
											{
												OFFSET 4.014610 0.000000 0.000000
												CHANNELS 3 Xrotation Yrotation Zrotation
												JOINT LeftHandMiddle3
												{
													OFFSET 2.996704 0.000000 0.000000
													CHANNELS 3 Xrotation Yrotation Zrotation
													JOINT LeftHandMiddle4
													{
														OFFSET 2.824951 0.000000 0.000000
														CHANNELS 3 Xrotation Yrotation Zrotation
														End Site
														{
															OFFSET 0.000000 0.000000 0.000000
														}
													}
												}
											}
										}
										JOINT LeftHandRing1
										{
											OFFSET 9.308403 0.143555 -2.241665
											CHANNELS 3 Xrotation Yrotation Zrotation
											JOINT LeftHandRing2
											{
												OFFSET 4.019402 0.000000 0.000000
												CHANNELS 3 Xrotation Yrotation Zrotation
												JOINT LeftHandRing3
												{
													OFFSET 2.790878 0.000000 0.000000
													CHANNELS 3 Xrotation Yrotation Zrotation
													JOINT LeftHandRing4
													{
														OFFSET 2.540703 0.000000 0.000000
														CHANNELS 3 Xrotation Yrotation Zrotation
														End Site
														{
															OFFSET 0.000000 0.000000 0.000000
														}
													}
												}
											}
										}
										JOINT LeftHandPinky1
										{
											OFFSET 8.985504 0.221634 -4.712756
											CHANNELS 3 Xrotation Yrotation Zrotation
											JOINT LeftHandPinky2
											{
												OFFSET 3.562500 0.000000 0.000000
												CHANNELS 3 Xrotation Yrotation Zrotation
												JOINT LeftHandPinky3
												{
													OFFSET 2.335197 0.000000 0.000000
													CHANNELS 3 Xrotation Yrotation Zrotation
													JOINT LeftHandPinky4
													{
														OFFSET 2.037300 0.000000 0.000000
														CHANNELS 3 Xrotation Yrotation Zrotation
														End Site
														{
															OFFSET 0.000000 0.000000 0.000000
														}
													}
												}
											}
										}
									}
								}
							}
						}
					}
					JOINT RightShoulder
					{
						OFFSET -2.989600 6.835098 -0.831300
						CHANNELS 3 Xrotation Yrotation Zrotation
						JOINT RightShoulder_split
						{
							OFFSET -2.989600 6.835098 -0.831300
							CHANNELS 3 Xrotation Yrotation Zrotation
							JOINT RightArm
							{
								OFFSET -12.499489 -1.649887 0.026500
								CHANNELS 3 Xrotation Yrotation Zrotation
								JOINT RightForeArm
								{
									OFFSET -25.574368 0.000000 0.000000
									CHANNELS 3 Xrotation Yrotation Zrotation
									JOINT RightHand
									{
										OFFSET -21.603493 0.000000 0.000000
										CHANNELS 3 Xrotation Yrotation Zrotation
										JOINT RightHandThumb1
										{
											OFFSET -3.545418 -1.908173 2.370371
											CHANNELS 3 Xrotation Yrotation Zrotation
											JOINT RightHandThumb2
											{
												OFFSET -2.175354 -1.255936 1.255941
												CHANNELS 3 Xrotation Yrotation Zrotation
												JOINT RightHandThumb3
												{
													OFFSET -1.842712 -1.063889 1.063890
													CHANNELS 3 Xrotation Yrotation Zrotation
													JOINT RightHandThumb4
													{
														OFFSET -1.893852 -1.093414 1.093418
														CHANNELS 3 Xrotation Yrotation Zrotation
														End Site
														{
															OFFSET 0.000000 0.000000 0.000000
														}
													}
												}
											}
										}
										JOINT RightHandPinky1
										{
											OFFSET -8.985298 0.221634 -4.712756
											CHANNELS 3 Xrotation Yrotation Zrotation
											JOINT RightHandPinky2
											{
												OFFSET -3.562500 0.000000 0.000000
												CHANNELS 3 Xrotation Yrotation Zrotation
												JOINT RightHandPinky3
												{
													OFFSET -2.335197 0.000000 0.000000
													CHANNELS 3 Xrotation Yrotation Zrotation
													JOINT RightHandPinky4
													{
														OFFSET -2.037300 0.000000 0.000000
														CHANNELS 3 Xrotation Yrotation Zrotation
														End Site
														{
															OFFSET 0.000000 0.000000 0.000000
														}
													}
												}
											}
										}
										JOINT RightHandRing1
										{
											OFFSET -9.308296 0.143555 -2.241765
											CHANNELS 3 Xrotation Yrotation Zrotation
											JOINT RightHandRing2
											{
												OFFSET -4.019402 0.000000 0.000000
												CHANNELS 3 Xrotation Yrotation Zrotation
												JOINT RightHandRing3
												{
													OFFSET -2.790787 0.000000 0.000000
													CHANNELS 3 Xrotation Yrotation Zrotation
													JOINT RightHandRing4
													{
														OFFSET -2.540703 0.000000 0.000000
														CHANNELS 3 Xrotation Yrotation Zrotation
														End Site
														{
															OFFSET 0.000000 0.000000 0.000000
														}
													}
												}
											}
										}
										JOINT RightHandMiddle1
										{
											OFFSET -9.700600 0.000000 0.000000
											CHANNELS 3 Xrotation Yrotation Zrotation
											JOINT RightHandMiddle2
											{
												OFFSET -4.014610 0.000000 0.000000
												CHANNELS 3 Xrotation Yrotation Zrotation
												JOINT RightHandMiddle3
												{
													OFFSET -2.996696 0.000000 0.000000
													CHANNELS 3 Xrotation Yrotation Zrotation
													JOINT RightHandMiddle4
													{
														OFFSET -2.824944 0.000000 0.000000
														CHANNELS 3 Xrotation Yrotation Zrotation
														End Site
														{
															OFFSET 0.000000 0.000000 0.000000
														}
													}
												}
											}
										}
										JOINT RightHandIndex1
										{
											OFFSET -9.909599 0.291367 2.341871
											CHANNELS 3 Xrotation Yrotation Zrotation
											JOINT RightHandIndex2
											{
												OFFSET -3.776711 0.000000 0.000000
												CHANNELS 3 Xrotation Yrotation Zrotation
												JOINT RightHandIndex3
												{
													OFFSET -2.543022 0.000000 0.000000
													CHANNELS 3 Xrotation Yrotation Zrotation
													JOINT RightHandIndex4
													{
														OFFSET -2.529045 0.000000 0.000000
														CHANNELS 3 Xrotation Yrotation Zrotation
														End Site
														{
															OFFSET 0.000000 0.000000 0.000000
														}
													}
												}
											}
										}
									}
								}
							}
						}
					}
				}
			}
		}
	}
	JOINT LeftUpLeg
	{
		OFFSET 9.789100 -5.875801 -0.583700
		CHANNELS 3 Xrotation Yrotation Zrotation
		JOINT LeftLeg
		{
			OFFSET 0.225677 -41.697334 0.590900
			CHANNELS 3 Xrotation Yrotation Zrotation
			JOINT LeftFoot
			{
				OFFSET -0.225677 -36.855366 -3.032300
				CHANNELS 3 Xrotation Yrotation Zrotation
				JOINT LeftToeBase
				{
					OFFSET -1.166500 -10.835600 12.529100
					CHANNELS 3 Xrotation Yrotation Zrotation
					JOINT LeftToe_End
					{
						OFFSET -0.576300 -0.126600 5.971400
						CHANNELS 3 Xrotation Yrotation Zrotation
						End Site
						{
							OFFSET 0.000000 0.000000 0.000000
						}
					}
				}
			}
		}
	}
	JOINT RightUpLeg
	{
		OFFSET -9.857600 -5.874001 -0.514900
		CHANNELS 3 Xrotation Yrotation Zrotation
		JOINT RightLeg
		{
			OFFSET -0.225670 -41.696266 0.701300
			CHANNELS 3 Xrotation Yrotation Zrotation
			JOINT RightFoot
			{
				OFFSET 0.225670 -36.858433 -3.211600
				CHANNELS 3 Xrotation Yrotation Zrotation
				JOINT RightToeBase
				{
					OFFSET 1.166500 -10.835600 12.670000
					CHANNELS 3 Xrotation Yrotation Zrotation
					JOINT RightToe_End
					{
						OFFSET 0.576300 -0.126600 6.020300
						CHANNELS 3 Xrotation Yrotation Zrotation
						End Site
						{
							OFFSET 0.000000 0.000000 0.000000
						}
					}
				}
			}
		}
	}
}
MOTION
Frames: 5
Frame Time: 0.016667
3.744179 92.643852 89.394684 -171.511282 67.271906 178.338643 10.476744 -3.421820 -6.339953 5.905954 -0.746152 -0.137393 0.000000 0.000000 0.000000 5.913740 -0.679946 -0.131284 -10.724001 -0.020884 2.039223 -4.215063 13.545538 -3.367739 0.000000 -0.000001 -0.000000 4.565330 8.264146 -9.764209 0.000000 0.000000 0.000000 -7.251017 -13.343458 -59.256488 0.000004 -11.301081 0.000004 9.160496 -15.323027 -1.192313 -3.469769 3.607319 7.883176 9.703621 22.223527 2.891178 -5.879075 9.699135 15.674862 -0.000001 0.000000 -0.000001 0.162352 3.429610 -10.498179 0.209650 1.554737 -15.358573 0.209648 1.554737 -15.358585 -0.000000 -0.000000 0.000002 0.362545 4.206371 -18.344239 0.474609 2.311791 -23.200240 0.474606 2.311795 -23.200225 0.000000 0.000000 -0.000002 0.689027 4.991710 -26.673260 0.865737 3.066785 -31.521449 0.865731 3.066783 -31.521449 -0.000000 0.000000 0.000001 0.902505 5.377887 -30.995364 1.110588 3.433621 -35.838177 1.110591 3.433627 -35.838149 0.000000 -0.000000 -0.000000 1.424810 6.319840 17.460019 0.000000 0.000000 0.000000 -2.214354 -4.391934 64.929861 0.000009 27.167069 0.000009 -23.146937 -17.077645 -15.152664 -1.986174 -5.435662 -3.761589 8.766437 -20.697703 -3.062093 -5.504759 -5.510977 -14.718506 0.000001 0.000002 0.000001 1.542112 -5.696824 47.168200 2.898969 -4.313214 67.797346 2.788744 -4.266706 66.323930 0.000001 0.000000 0.000001 2.854993 -6.549363 66.538576 4.919153 -4.649809 93.228209 2.921295 -4.322230 68.093940 -0.000000 0.000001 0.000001 2.592854 -6.426550 62.973429 4.946627 -4.648196 93.567287 3.098016 -4.388969 70.420582 -0.000000 0.000002 0.000001 2.057119 -6.108265 55.293557 5.419356 -4.594506 99.429407 3.163289 -4.411568 71.271262 -0.000000 0.000002 0.000003 -24.240529 10.083863 5.137303 33.012377 4.229301 2.807192 -4.253300 1.591315 -13.643731 -1.861498 -0.000014 0.000001 0.000000 -0.000000 -0.000000 -4.927327 -10.487040 -12.650164 27.095666 -9.319329 -2.909954 -18.305733 -5.139927 10.238369 -6.933665 -0.000003 0.000006 -0.000000 -0.000000 0.000000 
3.901058 92.543282 88.950432 -172.158716 65.371119 178.975272 10.519197 -3.394826 -6.521068 5.937754 -0.731594 -0.053678 0.000000 0.000000 0.000000 5.944717 -0.659886 -0.046719 -10.723272 -0.058149 2.025082 -4.160084 14.345679 -3.272150 -0.000000 -0.000003 0.000000 4.439872 8.094334 -9.464036 0.000000 0.000000 0.000000 -6.237159 -11.834760 -59.241680 -0.000009 -11.844614 0.000014 9.598145 -13.812534 -2.183881 -3.469769 3.607320 7.883175 9.703620 22.223521 2.891177 -5.879074 9.699136 15.674866 0.000000 0.000002 0.000001 0.162352 3.429610 -10.498183 0.209650 1.554736 -15.358570 0.209648 1.554737 -15.358584 0.000000 0.000000 -0.000001 0.362544 4.206372 -18.344239 0.474609 2.311792 -23.200238 0.474606 2.311796 -23.200230 -0.000000 0.000000 0.000001 0.689027 4.991711 -26.673260 0.865737 3.066786 -31.521449 0.865731 3.066782 -31.521449 -0.000000 0.000000 0.000000 0.902505 5.377887 -30.995371 1.110588 3.433621 -35.838180 1.110591 3.433627 -35.838146 0.000000 -0.000000 -0.000000 1.440127 6.247025 17.504255 0.000000 0.000000 0.000000 -2.407543 -5.275741 64.582512 0.000014 26.607746 -0.000006 -21.465321 -16.875359 -14.388026 -1.986174 -5.435665 -3.761592 8.766438 -20.697703 -3.062092 -5.504757 -5.510977 -14.718510 -0.000001 0.000005 0.000004 1.542113 -5.696826 47.168200 2.898968 -4.313216 67.797346 2.788743 -4.266704 66.323930 -0.000000 0.000001 0.000001 2.854993 -6.549363 66.538583 4.919152 -4.649810 93.228203 2.921294 -4.322229 68.093940 0.000000 0.000002 0.000001 2.592854 -6.426549 62.973429 4.946627 -4.648195 93.567294 3.098016 -4.388968 70.420582 0.000001 -0.000000 0.000001 2.057118 -6.108266 55.293557 5.419354 -4.594506 99.429400 3.163286 -4.411568 71.271262 0.000000 -0.000001 -0.000001 -23.936775 9.866616 5.305964 31.656178 5.181688 3.073906 -4.373504 1.929033 -13.135869 -1.662281 -0.000005 -0.000001 0.000000 0.000000 -0.000000 -4.335736 -10.995099 -12.666144 26.955224 -9.302065 -2.883163 -18.434836 -6.677787 10.448217 -6.963200 -0.000009 0.000001 0.000000 0.000000 -0.000000 
4.063764 92.441887 88.443542 -172.647593 63.473085 179.453098 10.590392 -3.350616 -6.722505 5.956441 -0.710472 0.027102 0.000000 0.000000 0.000000 5.962350 -0.633107 0.034884 -10.724160 -0.096681 2.008867 -4.103968 15.186880 -3.159079 0.000000 0.000004 -0.000000 4.315408 7.926121 -9.159258 0.000000 0.000000 0.000000 -5.366279 -10.439499 -59.331142 0.000001 -12.405897 0.000005 10.104742 -12.230452 -3.230678 -3.469769 3.607320 7.883176 9.703619 22.223523 2.891176 -5.879074 9.699136 15.674864 -0.000001 0.000003 -0.000000 0.162352 3.429610 -10.498178 0.209650 1.554736 -15.358573 0.209648 1.554736 -15.358585 -0.000000 -0.000000 0.000002 0.362545 4.206371 -18.344240 0.474608 2.311791 -23.200237 0.474607 2.311795 -23.200228 0.000000 0.000000 0.000002 0.689027 4.991711 -26.673262 0.865738 3.066786 -31.521446 0.865731 3.066783 -31.521449 0.000000 0.000000 0.000002 0.902505 5.377887 -30.995368 1.110589 3.433621 -35.838177 1.110591 3.433628 -35.838149 0.000000 -0.000000 -0.000000 1.452237 6.186890 17.530471 0.000000 0.000000 0.000000 -2.514475 -6.093110 64.276158 -0.000000 26.010574 0.000017 -19.830694 -16.637571 -13.686407 -1.986175 -5.435664 -3.761590 8.766437 -20.697702 -3.062093 -5.504761 -5.510969 -14.718510 -0.000001 0.000002 0.000004 1.542112 -5.696825 47.168200 2.898968 -4.313215 67.797346 2.788741 -4.266704 66.323930 0.000001 -0.000001 0.000001 2.854993 -6.549361 66.538576 4.919155 -4.649809 93.228209 2.921296 -4.322232 68.093940 -0.000000 0.000000 0.000000 2.592853 -6.426549 62.973429 4.946627 -4.648197 93.567294 3.098014 -4.388969 70.420589 -0.000000 -0.000000 -0.000001 2.057119 -6.108266 55.293564 5.419356 -4.594507 99.429407 3.163286 -4.411568 71.271262 0.000001 0.000001 -0.000000 -23.491085 9.585308 5.417911 30.177292 5.912199 3.294995 -4.340613 2.385316 -12.670643 -1.559815 -0.000006 -0.000002 -0.000000 0.000001 0.000000 -3.643973 -11.522634 -12.684715 26.721604 -9.297364 -2.849656 -18.523000 -8.192741 10.702616 -6.986894 0.000038 -0.000004 -0.000000 0.000000 -0.000000 
4.229927 92.340622 87.873672 -173.029975 61.587194 179.824442 10.674682 -3.292638 -6.938036 5.960718 -0.683478 0.100004 0.000000 0.000000 0.000000 5.965378 -0.600640 0.108445 -10.728266 -0.136324 1.990620 -4.053719 16.057583 -3.028832 -0.000000 -0.000003 0.000000 4.191117 7.756938 -8.850422 0.000000 0.000000 0.000000 -4.627765 -9.151183 -59.511739 0.000002 -12.942793 0.000011 10.682217 -10.597888 -4.326581 -3.469768 3.607320 7.883176 9.703622 22.223521 2.891177 -5.879077 9.699137 15.674866 0.000003 0.000003 -0.000002 0.162352 3.429610 -10.498183 0.209650 1.554737 -15.358570 0.209647 1.554737 -15.358589 -0.000001 -0.000000 0.000001 0.362545 4.206371 -18.344244 0.474611 2.311791 -23.200240 0.474607 2.311796 -23.200237 0.000001 0.000000 0.000001 0.689028 4.991712 -26.673265 0.865736 3.066786 -31.521449 0.865730 3.066783 -31.521453 0.000001 -0.000000 0.000000 0.902505 5.377887 -30.995371 1.110589 3.433621 -35.838177 1.110592 3.433628 -35.838146 -0.000001 0.000000 0.000000 1.460385 6.141542 17.531885 0.000000 0.000000 0.000000 -2.497087 -6.813976 64.020347 0.000004 25.388735 0.000010 -18.293296 -16.391192 -13.073750 -1.986174 -5.435664 -3.761591 8.766433 -20.697702 -3.062093 -5.504756 -5.510980 -14.718513 -0.000001 0.000004 0.000001 1.542112 -5.696826 47.168200 2.898968 -4.313218 67.797346 2.788745 -4.266707 66.323930 -0.000003 0.000001 -0.000003 2.854993 -6.549363 66.538576 4.919154 -4.649810 93.228203 2.921297 -4.322232 68.093940 0.000001 -0.000000 0.000002 2.592853 -6.426551 62.973429 4.946630 -4.648193 93.567294 3.098019 -4.388970 70.420589 0.000001 -0.000001 0.000000 2.057119 -6.108266 55.293557 5.419356 -4.594505 99.429407 3.163289 -4.411569 71.271262 -0.000001 -0.000001 -0.000002 -22.932102 9.273387 5.469395 28.620118 6.464013 3.475807 -4.123322 2.952560 -12.341838 -1.568499 0.000008 0.000003 -0.000000 -0.000002 -0.000000 -2.849052 -12.067613 -12.700919 26.369149 -9.301542 -2.809172 -18.570583 -9.696724 11.004376 -6.992220 -0.000008 -0.000001 -0.000000 -0.000000 -0.000000 
4.397192 92.241989 87.239929 -173.346909 59.719971 180.130216 10.756450 -3.225855 -7.159591 5.949797 -0.652319 0.160541 0.000000 0.000000 0.000000 5.953072 -0.564618 0.169439 -10.734682 -0.177073 1.970379 -4.013793 16.945798 -2.882279 0.000000 0.000001 -0.000000 4.066044 7.584056 -8.539700 0.000000 0.000000 0.000000 -4.008008 -7.960453 -59.768984 0.000026 -13.413236 -0.000007 11.330650 -8.935667 -5.465142 -3.469770 3.607321 7.883176 9.703621 22.223520 2.891175 -5.879074 9.699138 15.674866 -0.000002 -0.000001 0.000009 0.162351 3.429610 -10.498180 0.209648 1.554737 -15.358572 0.209649 1.554737 -15.358584 -0.000001 -0.000000 -0.000000 0.362545 4.206372 -18.344244 0.474609 2.311792 -23.200240 0.474607 2.311795 -23.200228 -0.000000 -0.000000 0.000001 0.689028 4.991711 -26.673260 0.865738 3.066785 -31.521449 0.865732 3.066782 -31.521453 0.000001 0.000000 0.000001 0.902505 5.377887 -30.995371 1.110588 3.433621 -35.838177 1.110590 3.433628 -35.838153 -0.000001 -0.000000 -0.000000 1.464163 6.111468 17.503862 0.000000 0.000000 0.000000 -2.336169 -7.415553 63.819969 0.000001 24.739468 0.000010 -16.891314 -16.157441 -12.566088 -1.986174 -5.435665 -3.761591 8.766439 -20.697708 -3.062092 -5.504758 -5.510978 -14.718513 -0.000000 -0.000001 -0.000002 1.542112 -5.696826 47.168200 2.898969 -4.313217 67.797346 2.788744 -4.266705 66.323930 0.000002 0.000001 -0.000002 2.854992 -6.549362 66.538576 4.919151 -4.649811 93.228203 2.921297 -4.322230 68.093940 0.000000 0.000000 0.000001 2.592853 -6.426551 62.973429 4.946630 -4.648196 93.567287 3.098017 -4.388968 70.420589 -0.000001 0.000002 0.000000 2.057117 -6.108267 55.293557 5.419356 -4.594508 99.429400 3.163289 -4.411568 71.271255 -0.000001 0.000002 0.000001 -22.282208 8.956822 5.457184 27.006575 6.899876 3.625590 -3.677337 3.602182 -12.229417 -1.652526 0.000006 -0.000002 -0.000000 0.000001 0.000000 -1.945854 -12.630058 -12.709625 25.865115 -9.289951 -2.757953 -18.568289 -11.214622 11.340919 -6.974969 -0.000008 -0.000000 -0.000000 0.000000 0.000000 
